<?xml version="1.0" encoding="UTF-8" standalone="no"?>
<!-- Created with Inkscape (http://www.inkscape.org/) -->

<svg
   version="1.1"
   id="svg48"
   width="344.49332"
   height="415.53571"
   viewBox="0 0 344.49333 415.53571"
   sodipodi:docname="OSU Cyber Security Club (new version) RGB.eps"
   xmlns:inkscape="http://www.inkscape.org/namespaces/inkscape"
   xmlns:sodipodi="http://sodipodi.sourceforge.net/DTD/sodipodi-0.dtd"
   xmlns="http://www.w3.org/2000/svg"
   xmlns:svg="http://www.w3.org/2000/svg">
  <defs
     id="defs52" />
  <sodipodi:namedview
     id="namedview50"
     pagecolor="#ffffff"
     bordercolor="#000000"
     borderopacity="0.25"
     inkscape:showpageshadow="2"
     inkscape:pageopacity="0.0"
     inkscape:pagecheckerboard="0"
     inkscape:deskcolor="#d1d1d1"
     showgrid="false" />
  <g
     id="g56"
     inkscape:groupmode="layer"
     inkscape:label="Page 1"
     transform="matrix(1.3333333,0,0,-1.3333333,-1849.6266,509.65599)">
    <g
       id="g58"
       transform="scale(0.1)">
      <path
         d="m 15166.3,2471.6 c 0,0 -684,743.7 0,1350.82 0,0 0,-179.76 152.2,-270.16 152.2,-90.4 319,-662.45 -152.2,-1080.66"
         style="fill:#100f0d;fill-opacity:1;fill-rule:nonzero;stroke:none"
         id="path344" />
      <path
         d="m 15286.1,2365.99 c 0,0 302,964.27 1169.8,675.41 0,0 -155.6,-89.88 -157.8,-266.89 -2.2,-177.01 -414.2,-607.49 -1012,-408.52"
         style="fill:#ba1d24;fill-opacity:1;fill-rule:nonzero;stroke:none"
         id="path346" />
      <path
         d="m 15042.1,2364.78 c 0,0 -986.1,-220.57 -1169.9,675.41 0,0 155.7,-89.88 310.1,-3.27 154.4,86.61 733.2,-54.95 859.8,-672.14"
         style="fill:#ba1d24;fill-opacity:1;fill-rule:nonzero;stroke:none"
         id="path348" />
      <path
         d="m 15059.6,2245.21 c 0,0 -262.6,-838.49 -1017.2,-587.32 0,0 135.3,78.16 137.2,232.09 1.9,153.92 360.2,528.26 880,355.23"
         style="fill:#100f0d;fill-opacity:1;fill-rule:nonzero;stroke:none"
         id="path350" />
      <path
         d="m 15270.4,2242.31 c 0,0 857.5,191.8 1017.2,-587.32 0,0 -135.3,78.16 -269.6,2.85 -134.2,-75.32 -637.6,47.78 -747.6,584.47"
         style="fill:#100f0d;fill-opacity:1;fill-rule:nonzero;stroke:none"
         id="path352" />
      <path
         d="M 15410.6,768.301 15169.3,1013.9 V 2314.58"
         style="fill:none;stroke:#ba1d24;stroke-width:65.4059;stroke-linecap:butt;stroke-linejoin:miter;stroke-miterlimit:10;stroke-dasharray:none;stroke-opacity:1"
         id="path354" />
      <path
         d="M 15169.3,1013.9 14919.4,768.301"
         style="fill:none;stroke:#ba1d24;stroke-width:65.4059;stroke-linecap:butt;stroke-linejoin:miter;stroke-miterlimit:10;stroke-dasharray:none;stroke-opacity:1"
         id="path356" />
      <path
         d="M 15323.6,1875.79 V 1138.98"
         style="fill:none;stroke:#ba1d24;stroke-width:71.6486;stroke-linecap:butt;stroke-linejoin:miter;stroke-miterlimit:10;stroke-dasharray:none;stroke-opacity:1"
         id="path358" />
      <path
         d="M 15007,1873.52 V 1136.71"
         style="fill:none;stroke:#ba1d24;stroke-width:71.6486;stroke-linecap:butt;stroke-linejoin:miter;stroke-miterlimit:10;stroke-dasharray:none;stroke-opacity:1"
         id="path360" />
      <path
         d="m 15384.1,1138.98 c 0,-34.46 -27.9,-62.4 -62.4,-62.4 -34.5,0 -62.4,27.94 -62.4,62.4 0,34.47 27.9,62.4 62.4,62.4 34.5,0 62.4,-27.93 62.4,-62.4"
         style="fill:#100f0d;fill-opacity:1;fill-rule:nonzero;stroke:none"
         id="path362" />
      <path
         d="m 15067.5,1152.45 c 0,-34.47 -27.9,-62.41 -62.4,-62.41 -34.4,0 -62.4,27.94 -62.4,62.41 0,34.46 28,62.4 62.4,62.4 34.5,0 62.4,-27.94 62.4,-62.4"
         style="fill:#100f0d;fill-opacity:1;fill-rule:nonzero;stroke:none"
         id="path364" />
      <path
         d="m 14981.8,768.301 c 0,-34.461 -27.9,-62.399 -62.4,-62.399 -34.5,0 -62.4,27.938 -62.4,62.399 0,34.461 27.9,62.398 62.4,62.398 34.5,0 62.4,-27.937 62.4,-62.398"
         style="fill:#100f0d;fill-opacity:1;fill-rule:nonzero;stroke:none"
         id="path366" />
      <path
         d="m 15473,768.301 c 0,-34.461 -27.9,-62.399 -62.4,-62.399 -34.5,0 -62.4,27.938 -62.4,62.399 0,34.461 27.9,62.398 62.4,62.398 34.5,0 62.4,-27.937 62.4,-62.398"
         style="fill:#100f0d;fill-opacity:1;fill-rule:nonzero;stroke:none"
         id="path368" />
      <path
         d="m 15116.9,2250.16 -52.3,90.61 52.3,90.62 h 104.7 l 52.3,-90.62 -52.3,-90.61 h -104.7"
         style="fill:#100f0d;fill-opacity:1;fill-rule:nonzero;stroke:none"
         id="path370" />
      <path
         d="m 15078.6,2288.46 v 104.63 l 90.7,52.31 90.6,-52.31 v -104.63 l -90.6,-52.32 -90.7,52.32"
         style="fill:#100f0d;fill-opacity:1;fill-rule:nonzero;stroke:none"
         id="path372" />
    </g>
  </g>
</svg>
